HIERARCHY
ROOT Hips
{
	OFFSET -0.001795 -0.223333 0.028219
	CHANNELS 6 Xposition Yposition Zposition Zrotation Yrotation Xrotation 
	JOINT LeftUpLeg
	{
		OFFSET 0.069520 -0.091406 -0.006815
		CHANNELS 3 Zrotation Yrotation Xrotation
		JOINT LeftLeg
		{
			OFFSET 0.034277 -0.375199 -0.004496
			CHANNELS 3 Zrotation Yrotation Xrotation
			JOINT LeftFoot
			{
				OFFSET -0.013596 -0.397961 -0.043693
				CHANNELS 3 Zrotation Yrotation Xrotation
				JOINT LeftToe
				{
					OFFSET 0.026358 -0.055791 0.119288
					CHANNELS 3 Zrotation Yrotation Xrotation
					End Site
					{
						OFFSET 0.000000 0.000000 0.000000
					}
				}
			}
		}
	}
	JOINT RightUpLeg
	{
		OFFSET -0.067670 -0.090522 -0.004320
		CHANNELS 3 Zrotation Yrotation Xrotation
		JOINT RightLeg
		{
			OFFSET -0.038290 -0.382569 -0.008850
			CHANNELS 3 Zrotation Yrotation Xrotation
			JOINT RightFoot
			{
				OFFSET 0.015774 -0.398415 -0.042312
				CHANNELS 3 Zrotation Yrotation Xrotation
				JOINT RightToe
				{
					OFFSET -0.025372 -0.048144 0.123348
					CHANNELS 3 Zrotation Yrotation Xrotation
					End Site
					{
						OFFSET 0.000000 0.000000 0.000000
					}
				}
			}
		}
	}
	JOINT Spine
	{
		OFFSET -0.002533 0.108963 -0.026696
		CHANNELS 3 Zrotation Yrotation Xrotation
		JOINT Spine1
		{
			OFFSET 0.005487 0.135180 0.001092
			CHANNELS 3 Zrotation Yrotation Xrotation
			JOINT Spine2
			{
				OFFSET 0.001457 0.052922 0.025425
				CHANNELS 3 Zrotation Yrotation Xrotation
				JOINT Neck
				{
					OFFSET -0.002778 0.213870 -0.042857
					CHANNELS 3 Zrotation Yrotation Xrotation
					JOINT Head
					{
						OFFSET 0.005152 0.064970 0.051349
						CHANNELS 3 Zrotation Yrotation Xrotation
						End Site
						{
							OFFSET 0.000000 0.000000 0.000000
						}
					}
				}
				JOINT LeftShoulder
				{
					OFFSET 0.078845 0.121749 -0.034090
					CHANNELS 3 Zrotation Yrotation Xrotation
					JOINT LeftArm
					{
						OFFSET 0.090977 0.030469 -0.008868
						CHANNELS 3 Zrotation Yrotation Xrotation
						JOINT LeftForeArm
						{
							OFFSET 0.259612 -0.012772 -0.027456
							CHANNELS 3 Zrotation Yrotation Xrotation
							JOINT LeftHand
							{
								OFFSET 0.249234 0.008986 -0.001171
								CHANNELS 3 Zrotation Yrotation Xrotation
								End Site
								{
									OFFSET 0.000000 0.000000 0.000000
								}
							}
						}
					}
				}
				JOINT RightShoulder
				{
					OFFSET -0.081759 0.118833 -0.038615
					CHANNELS 3 Zrotation Yrotation Xrotation
					JOINT RightArm
					{
						OFFSET -0.096012 0.032551 -0.009143
						CHANNELS 3 Zrotation Yrotation Xrotation
						JOINT RightForeArm
						{
							OFFSET -0.253742 -0.013329 -0.021401
							CHANNELS 3 Zrotation Yrotation Xrotation
							JOINT RightHand
							{
								OFFSET -0.255298 0.007772 -0.005559
								CHANNELS 3 Zrotation Yrotation Xrotation
								End Site
								{
									OFFSET 0.000000 0.000000 0.000000
								}
							}
						}
					}
				}
			}
		}
	}
}
MOTION
Frames: 7
Frame Time: 0.050000
0.000000 0.943386 0.000000 -0.177620 -1.566508 6.253866 8.422415 -0.410795 -13.593717 -4.894888 0.651882 8.826215 4.099896 10.068702 6.363271 0.000000 0.000000 0.000000 -9.765521 0.592556 -11.433082 0.702174 0.296181 10.387277 -3.739008 -11.224733 7.070667 0.000000 0.000000 0.000000 4.042127 -0.981579 11.468552 -1.607698 0.957587 -23.970984 -0.326327 4.343077 24.149592 3.990320 -0.142222 -25.514364 0.000000 0.000000 0.000000 4.282074 4.585115 -1.112369 -15.637075 -8.757265 -1.652277 8.491810 -0.191229 0.014800 0.000000 0.000000 0.000000 -3.993544 -8.062847 -2.600068 24.019145 -0.495043 -3.247905 -10.510037 3.225713 0.131560 0.000000 0.000000 0.000000 
-0.004206 0.946016 0.006526 -0.603105 -0.962971 6.573754 7.893203 -0.458703 -12.212017 -3.387963 0.356054 5.827092 2.392317 7.223509 7.198111 0.000000 0.000000 0.000000 -8.961031 0.603178 -10.341370 0.172596 0.358961 9.620934 -4.513295 -12.847231 7.474972 0.000000 0.000000 0.000000 4.736457 -1.194237 12.788743 -1.615653 0.992703 -26.445637 -1.072810 3.873094 24.012271 3.424695 0.205002 -25.973934 0.000000 0.000000 0.000000 4.320911 4.265895 -1.007024 -15.548419 -6.815162 -1.770305 7.387562 0.763437 0.046143 0.000000 0.000000 0.000000 -3.961469 -10.399184 -3.366277 22.286192 -6.405183 -3.705687 -6.006864 5.005306 0.068567 0.000000 0.000000 0.000000 
-0.007296 0.948144 0.012890 -0.748352 -3.154669 6.089925 6.968573 -0.447723 -11.204553 -1.301776 0.012392 7.452812 2.392243 6.804026 6.177460 0.000000 0.000000 0.000000 -8.460301 0.643384 -9.350860 1.216488 0.223676 10.353428 -4.488303 -12.702880 6.305377 0.000000 0.000000 0.000000 4.265665 -1.108077 13.104564 -1.571700 0.979843 -27.472649 -1.126844 5.416802 25.703391 4.401338 -0.213264 -27.046005 0.000000 0.000000 0.000000 3.754365 5.800619 -1.589071 -16.119657 -6.780885 -1.881475 7.409106 1.900039 0.080481 0.000000 0.000000 0.000000 -4.035698 -13.016787 -4.262741 23.779559 -6.450904 -4.059169 -4.790111 2.044562 0.117862 0.000000 0.000000 0.000000 
-0.008511 0.949603 0.018813 -0.710803 -3.869559 6.154608 6.113645 -0.494406 -10.973092 -0.670845 -0.100169 7.800215 1.508767 4.717914 4.764490 0.000000 0.000000 0.000000 -8.460505 0.646464 -8.884164 0.872189 0.293489 10.183614 -3.662117 -11.395530 7.806781 0.000000 0.000000 0.000000 3.814304 -1.065255 13.629749 -2.248657 1.115575 -27.391070 -0.825098 5.143836 25.561731 3.554839 0.156732 -27.165585 0.000000 0.000000 0.000000 3.959813 7.160743 -2.029651 -18.026385 -6.321148 -2.096969 7.452775 3.426666 0.137305 0.000000 0.000000 0.000000 -4.589950 -14.288283 -4.548030 24.355208 -8.057395 -4.354347 -1.529645 1.276309 0.065037 0.000000 0.000000 0.000000 
-0.007102 0.952615 0.023739 -1.038807 -5.517246 6.260622 5.127499 -0.544968 -11.030706 1.106582 -0.449631 8.984128 0.887930 2.966875 3.252194 0.000000 0.000000 0.000000 -7.860833 0.761635 -10.522949 0.412188 0.512223 12.316014 -3.245045 -10.879597 8.445540 0.000000 0.000000 0.000000 3.402395 -0.974117 13.570344 -1.821018 1.027179 -27.997982 -0.695469 6.314709 26.989060 4.729961 -0.437190 -27.728029 0.000000 0.000000 0.000000 3.293347 9.715368 -3.004173 -19.695173 -5.531499 -2.401990 6.050480 2.861598 0.082100 0.000000 0.000000 0.000000 -5.065783 -14.908967 -4.710192 25.904920 -8.788909 -4.838393 -1.299344 0.636426 0.048633 0.000000 0.000000 0.000000 
-0.002177 0.956130 0.027018 -0.686023 -7.120465 5.274927 3.922179 -0.598552 -10.659960 1.593447 -0.593547 11.194171 0.778124 2.333139 2.091810 0.000000 0.000000 0.000000 -9.018594 0.742727 -10.483658 0.910554 0.512158 13.610418 -2.680269 -10.123077 9.217989 0.000000 0.000000 0.000000 2.904161 -0.921921 14.823101 -2.161790 1.074786 -27.557657 1.296090 7.754523 27.576138 5.744023 -0.805421 -28.770987 0.000000 0.000000 0.000000 2.136955 9.896731 -3.247959 -22.972038 -5.295954 -2.792828 5.682780 4.411114 0.091213 0.000000 0.000000 0.000000 -4.937973 -16.343785 -5.235790 25.938986 -6.212753 -4.471944 -4.363685 0.656512 0.121467 0.000000 0.000000 0.000000 
0.005773 0.959549 0.029053 -0.851869 -7.946971 4.081086 2.720423 -0.618559 -9.425037 1.883466 -0.659246 11.710175 1.093046 3.321926 3.377119 0.000000 0.000000 0.000000 -9.562329 0.743518 -11.090679 1.091544 0.696221 17.112855 -0.979870 -7.509426 10.998234 0.000000 0.000000 0.000000 2.851705 -0.966671 16.768520 -0.863456 0.799439 -27.398465 1.332323 8.444743 27.529860 6.538779 -1.056214 -29.977670 0.000000 0.000000 0.000000 0.544016 10.783342 -3.834530 -24.928652 -4.555231 -3.128773 7.380002 4.998013 0.175641 0.000000 0.000000 0.000000 -5.499411 -14.667278 -4.600242 26.084429 -3.650132 -4.095625 -6.044594 1.272344 0.154674 0.000000 0.000000 0.000000 
